HIERARCHY
ROOT Hips
{
	OFFSET	0.00	0.00	0.00
	CHANNELS 6 Xposition Yposition Zposition Zrotation Xrotation Yrotation
	JOINT LeftUpLeg
	{
		OFFSET	 0.126116	-0.014019	-0.065224
		CHANNELS 3 Zrotation Xrotation Yrotation
		JOINT LeftLeg
		{
			OFFSET	 0.000000	 0.000000	 0.569914
			CHANNELS 3 Zrotation Xrotation Yrotation
			JOINT LeftFoot
			{
				OFFSET	 0.000000	 0.000000	 0.544423
				CHANNELS 3 Zrotation Xrotation Yrotation
				JOINT LeftToeBase
				{
					OFFSET	 0.000000	 0.000000	 0.207117
					CHANNELS 3 Zrotation Xrotation Yrotation
					End Site
					{
						OFFSET	 0.000000	 0.000000	 0.207117
					}
				}
			}
		}
	}
	JOINT RightUpLeg
	{
		OFFSET	-0.124023	-0.008373	-0.065224
		CHANNELS 3 Zrotation Xrotation Yrotation
		JOINT RightLeg
		{
			OFFSET	 0.000000	 0.000000	 0.570047
			CHANNELS 3 Zrotation Xrotation Yrotation
			JOINT RightFoot
			{
				OFFSET	 0.000000	 0.000000	 0.544354
				CHANNELS 3 Zrotation Xrotation Yrotation
				JOINT RightToeBase
				{
					OFFSET	 0.000000	 0.000000	 0.207540
					CHANNELS 3 Zrotation Xrotation Yrotation
					End Site
					{
						OFFSET	 0.000000	 0.000000	 0.207540
					}
				}
			}
		}
	}
	JOINT Spine
	{
		OFFSET	 0.000184	-0.007763	 0.117403
		CHANNELS 3 Zrotation Xrotation Yrotation
		JOINT Spine1
		{
			OFFSET	 0.000000	 0.000000	 0.137269
			CHANNELS 3 Zrotation Xrotation Yrotation
			JOINT Spine2
			{
				OFFSET	 0.000000	 0.000000	 0.156879
				CHANNELS 3 Zrotation Xrotation Yrotation
				JOINT LeftShoulder
				{
					OFFSET	 0.080501	-0.002496	 0.160144
					CHANNELS 3 Zrotation Xrotation Yrotation
					JOINT LeftArm
					{
						OFFSET	 0.000000	 0.000000	 0.164363
						CHANNELS 3 Zrotation Xrotation Yrotation
						JOINT LeftForeArm
						{
							OFFSET	 0.000000	 0.000000	 0.364576
							CHANNELS 3 Zrotation Xrotation Yrotation
							JOINT LeftHand
							{
								OFFSET	 0.000000	 0.000000	 0.360812
								CHANNELS 3 Zrotation Xrotation Yrotation
								JOINT LeftHandIndex1
								{
									OFFSET	 0.000000	 0.000000	 0.086006
									CHANNELS 3 Zrotation Xrotation Yrotation
									JOINT LeftHandIndex2
									{
										OFFSET	 0.000000	 0.000000	 0.047236
										CHANNELS 3 Zrotation Xrotation Yrotation
										JOINT LeftHandIndex3
										{
											OFFSET	-0.004284	-0.000551	 0.038166
											CHANNELS 3 Zrotation Xrotation Yrotation
											End Site
											{
												OFFSET	-0.004284	-0.000551	 0.038166
											}
										}
									}
								}
							}
						}
					}
				}
				JOINT Neck
				{
					OFFSET	 0.000000	 0.000000	 0.176489
					CHANNELS 3 Zrotation Xrotation Yrotation
					JOINT Head
					{
						OFFSET	 0.000000	-0.001747	 0.077940
						CHANNELS 3 Zrotation Xrotation Yrotation
						End Site
						{
							OFFSET	 0.000000	-0.001747	 0.077940
						}
					}
				}
				JOINT RightShoulder
				{
					OFFSET	-0.080363	 0.000306	 0.159706
					CHANNELS 3 Zrotation Xrotation Yrotation
					JOINT RightArm
					{
						OFFSET	 0.000000	 0.000000	 0.164196
						CHANNELS 3 Zrotation Xrotation Yrotation
						JOINT RightForeArm
						{
							OFFSET	 0.000000	 0.000000	 0.365611
							CHANNELS 3 Zrotation Xrotation Yrotation
							JOINT RightHand
							{
								OFFSET	 0.000000	 0.000000	 0.360648
								CHANNELS 3 Zrotation Xrotation Yrotation
								JOINT RightHandIndex1
								{
									OFFSET	 0.000000	 0.000000	 0.069977
									CHANNELS 3 Zrotation Xrotation Yrotation
									JOINT RightHandIndex2
									{
										OFFSET	 0.000000	 0.000000	 0.052305
										CHANNELS 3 Zrotation Xrotation Yrotation
										JOINT RightHandIndex3
										{
											OFFSET	 0.009002	-0.000782	 0.042196
											CHANNELS 3 Zrotation Xrotation Yrotation
											End Site
											{
												OFFSET	 0.009002	-0.000782	 0.042196
											}
										}
									}
								}
							}
						}
					}
				}
			}
		}
	}
}
MOTION
Frames:    10
Frame Time: 0.03333334
-1.878585	-14.661030	 1.107515	-16.753700	 9.439036	 3.100156	 5.603712	-20.620680	 175.435900	-4.275833	-36.333460	-1.016105	-1.184207	 83.516690	-0.508928	-2.332942	 36.544120	-0.186585	-1.974837	-22.600740	-178.945900	-2.015399	-40.407970	-0.958629	-1.520449	 86.960820	 0.741650	 2.392974	 26.275410	-0.045097	 7.839767	 4.404630	-1.621095	 13.683510	 2.923522	-1.944789	 16.051260	 1.181426	 0.902395	-101.525400	 88.592350	-167.552800	 54.595210	 68.111420	-64.508710	-5.072883	-4.249590	-17.914720	 5.783426	-22.798780	-5.780897	-2.038172	-11.181590	 7.079946	-5.213516	-0.193813	 3.566525	-1.378229	 35.397820	-2.634230	 0.715987	 1.315251	 0.643837	 4.360519	 2.211654	-0.029240	 96.596710	 87.895230	 170.249800	-50.797770	 75.753330	 64.185150	-1.899484	-12.682030	 23.423590	-22.196700	-23.515960	 10.451830	-7.424973	-4.205806	-37.104250	 5.070815	-0.697434	-9.399699	-2.350882	 35.473990	 5.254307
-1.880926	-14.663810	 1.108504	-16.644700	 9.128857	 2.997453	 5.474629	-20.268350	 175.390600	-4.322209	-36.489170	-1.129355	-1.273419	 83.663890	-0.568832	-2.329170	 36.961980	-0.196992	-1.764723	-21.773500	-178.978300	-1.923109	-39.510310	-0.786029	-1.501741	 86.475520	 0.903454	 2.395165	 25.614240	-0.058966	 7.097739	 4.324864	-1.591810	 13.616810	 2.956387	-1.953470	 16.095920	 1.145583	 0.909993	-101.150400	 88.607730	-168.061800	 53.694600	 68.361700	-63.391550	-5.366937	-4.076749	-17.452350	 5.866563	-23.594220	-5.861954	-2.949015	-11.612460	 4.934004	-5.213516	-0.193813	 3.566525	-1.378229	 35.397820	-2.634230	 0.770342	 1.483890	 0.710690	 4.473958	 2.455194	 0.037311	 96.764100	 87.933700	 170.077500	-51.830900	 75.650090	 65.030360	-1.814267	-12.452250	 23.620860	-21.943440	-24.272290	 10.571340	-7.355257	-4.248293	-36.893390	 5.070815	-0.697434	-9.399699	-2.350882	 35.473990	 5.254307
-1.884929	-14.667780	 1.108095	-16.228450	 8.918524	 2.820623	 5.298108	-19.904800	 175.358200	-4.198197	-36.462080	-1.156355	-1.352041	 83.801220	-0.535885	-2.325394	 37.367470	-0.207185	-1.786734	-20.201960	-179.001100	-1.398768	-37.596380	-0.495385	-1.284346	 86.504140	 1.073794	 2.392476	 26.418930	-0.042076	 5.988988	 3.973856	-1.517597	 13.412570	 2.980173	-1.938431	 16.061110	 1.153716	 0.906852	-100.431400	 88.611250	-168.982600	 52.998610	 68.724060	-62.499770	-5.831892	-3.871412	-17.059330	 5.946791	-24.676610	-5.983705	-3.436312	-11.890810	 3.797475	-5.213516	-0.193813	 3.566525	-1.378229	 35.397820	-2.634230	 0.741927	 1.688797	 0.843795	 4.584248	 2.905087	-0.138027	 97.122830	 88.011010	 169.707700	-52.572270	 75.689680	 65.334720	-1.526737	-12.155810	 23.965160	-21.562740	-25.305570	 10.747390	-7.248043	-4.190698	-36.661700	 5.070815	-0.697434	-9.399699	-2.350882	 35.473990	 5.254307
-1.890033	-14.671230	 1.108148	-15.834010	 8.850985	 2.868257	 5.023155	-19.493290	 175.103200	-4.044764	-36.193540	-1.219763	-1.439332	 83.672030	-0.555277	-2.322270	 37.694970	-0.215478	-2.125489	-18.961810	-179.400000	-1.029205	-35.597760	-0.518645	-1.494465	 86.460490	 1.290228	 2.392596	 26.382780	-0.042833	 4.539178	 3.525504	-1.762417	 13.229000	 2.957400	-1.935892	 15.968120	 1.175284	 0.898519	-99.231670	 88.502890	-170.324500	 52.582610	 69.337460	-62.280600	-6.797370	-3.646301	-16.964740	 6.024480	-26.200470	-6.180380	-3.249594	-11.973050	 4.227597	-5.213516	-0.193813	 3.566525	-1.378229	 35.397820	-2.634230	 0.751554	 1.903777	 1.044388	 4.633464	 3.393450	-0.223433	 97.943700	 88.187170	 168.902200	-53.135380	 75.803790	 65.344440	-0.958015	-11.730390	 24.508690	-20.965270	-26.770860	 11.021870	-7.122270	-4.022591	-36.464310	 5.070815	-0.697434	-9.399699	-2.350882	 35.473990	 5.254307
-1.892603	-14.672610	 1.108375	-15.980040	 8.856986	 3.174647	 4.925179	-19.292210	 174.736100	-4.096587	-35.931270	-1.313501	-1.479847	 83.492360	-0.665434	-2.322435	 37.677590	-0.215033	-2.328294	-18.549230	-179.738300	-1.273087	-34.983760	-0.798456	-1.845590	 86.268180	 1.241758	 2.396429	 25.208060	-0.067445	 3.748742	 3.279594	-2.132002	 13.249720	 2.877128	-2.004884	 15.912810	 1.135428	 0.900921	-98.740030	 88.396480	-170.789700	 52.340610	 69.843500	-62.218890	-7.666152	-3.518299	-17.220700	 5.958724	-27.177170	-6.323047	-3.323759	-12.111490	 4.053669	-5.213516	-0.193813	 3.566525	-1.378229	 35.397820	-2.634230	 0.842554	 2.079396	 1.132049	 4.597449	 3.445924	-0.147895	 98.418310	 88.301190	 168.486600	-53.299760	 75.848850	 65.277070	-0.548636	-11.453380	 24.870490	-20.569310	-27.717580	 11.213740	-7.066288	-3.898335	-36.413210	 5.070815	-0.697434	-9.399699	-2.350882	 35.473990	 5.254307
-1.895260	-14.674040	 1.108741	-16.582590	 8.896271	 3.266809	 4.923018	-18.998870	 174.772500	-4.359453	-35.481230	-1.442236	-1.520516	 83.224710	-0.847457	-2.323159	 37.602910	-0.213139	-2.454804	-18.416520	-179.806500	-1.703587	-34.554950	-1.118111	-2.314940	 86.058070	 1.237674	 2.397747	 24.753160	-0.076875	 2.752647	 2.917302	-2.135295	 13.326250	 2.689246	-1.962001	 15.813990	 0.949164	 0.921040	-98.857640	 88.376950	-170.602700	 52.250610	 70.346060	-62.069400	-9.111297	-3.237551	-18.068510	 5.264199	-28.543990	-6.556335	-3.780396	-12.688310	 3.000503	-5.213516	-0.193813	 3.566525	-1.378229	 35.397820	-2.634230	 0.997182	 2.258285	 1.114607	 4.525172	 3.433441	-0.243170	 98.116740	 88.321820	 168.926500	-53.217030	 75.845380	 65.047160	-0.008931	-11.083170	 25.370680	-20.073930	-29.059060	 11.505510	-7.006357	-3.748197	-36.371230	 5.070815	-0.697434	-9.399699	-2.350882	 35.473990	 5.254307
-1.897627	-14.674930	 1.109331	-17.206650	 8.895886	 2.845012	 5.059735	-18.436440	 175.141100	-4.664298	-34.877570	-1.490566	-1.569297	 82.976610	-0.930901	-2.324767	 37.434250	-0.208870	-2.466224	-18.571250	-179.470200	-1.909026	-34.453620	-1.218051	-2.579387	 86.051320	 1.357795	 2.397211	 24.940400	-0.073002	 1.507719	 2.806351	-1.584884	 13.261250	 2.465033	-1.722582	 15.633070	 0.652702	 0.950928	-99.310710	 88.427410	-170.091200	 53.232280	 70.183880	-62.755370	-10.534650	-2.753971	-19.624860	 3.769666	-30.126400	-6.867079	-3.874955	-13.063130	 2.785527	-5.213516	-0.193813	 3.566525	-1.378229	 35.397820	-2.634230	 1.092690	 2.228203	 0.991354	 4.471539	 3.548613	-0.503901	 97.599490	 88.261670	 169.504500	-52.923270	 75.773520	 64.775940	 0.599285	-10.655310	 25.937140	-19.530460	-30.621480	 11.878950	-6.969781	-3.641918	-36.356620	 5.070815	-0.697434	-9.399699	-2.350882	 35.473990	 5.254307
-1.899532	-14.675310	 1.110065	-17.423350	 8.876098	 2.555671	 5.124624	-18.044820	 175.366000	-4.757690	-34.315960	-1.461632	-1.640730	 82.865290	-0.880665	-2.326252	 37.275970	-0.204884	-2.472482	-18.606710	-179.309200	-1.898743	-34.559610	-1.204449	-2.674674	 86.053350	 1.477676	 2.396503	 25.182570	-0.067969	 0.066061	 2.855434	-1.319111	 13.030740	 2.293897	-1.556809	 15.412930	 0.414232	 0.969520	-99.400570	 88.439280	-169.994300	 54.821870	 69.461260	-64.193080	-11.031460	-2.292003	-20.862280	 2.652309	-31.685820	-7.195213	-3.659898	-12.653450	 3.275789	-5.213516	-0.193813	 3.566525	-1.378229	 35.397820	-2.634230	 1.110326	 2.175659	 0.956919	 4.450187	 3.618275	-0.580386	 97.653820	 88.241750	 169.395500	-52.518860	 75.666840	 64.505340	 1.211613	-10.215130	 26.479950	-18.976130	-32.151850	 12.283260	-6.974395	-3.636325	-36.372860	 5.070815	-0.697434	-9.399699	-2.350882	 35.473990	 5.254307
-1.901019	-14.675770	 1.110816	-17.402670	 8.901508	 2.425855	 5.131578	-17.833330	 175.435300	-4.736738	-33.932960	-1.417776	-1.700662	 82.811240	-0.798805	-2.326936	 37.203510	-0.203048	-2.504367	-18.549170	-179.298600	-1.798901	-34.718380	-1.162876	-2.728008	 86.056920	 1.596790	 2.395842	 25.399980	-0.063446	-1.550720	 2.819268	-1.335153	 12.721530	 2.186603	-1.455878	 15.160810	 0.248878	 0.975391	-98.723490	 88.350990	-170.737600	 56.425030	 68.584560	-65.911120	-10.846050	-1.968335	-21.854150	 2.205200	-33.307070	-7.558773	-3.507118	-11.977990	 3.632650	-5.213516	-0.193813	 3.566525	-1.378229	 35.397820	-2.634230	 1.097785	 2.203078	 1.004418	 4.430551	 3.625603	-0.463063	 98.301900	 88.318910	 168.675800	-51.795120	 75.563550	 63.906000	 1.904991	-9.741531	 27.088510	-18.334840	-33.729940	 12.743820	-7.009588	-3.700313	-36.415890	 5.070815	-0.697434	-9.399699	-2.350882	 35.473990	 5.254307
-1.902366	-14.676470	 1.111512	-17.241010	 8.931970	 2.338291	 5.107497	-17.707590	 175.456600	-4.658808	-33.667610	-1.368456	-1.751263	 82.772160	-0.702350	-2.327587	 37.132920	-0.201280	-2.526273	-18.471080	-179.298000	-1.640377	-34.797730	-1.083322	-2.748875	 86.055340	 1.736594	 2.394933	 25.687400	-0.057441	-3.467833	 2.640375	-1.399091	 12.310920	 2.084519	-1.400834	 14.828370	 0.094266	 0.973795	-98.093690	 88.282970	-171.473900	 57.641450	 67.884410	-67.467230	-10.911440	-1.601170	-22.839070	 1.825707	-35.155910	-8.017996	-3.267751	-11.282070	 4.200410	-5.213516	-0.193813	 3.566525	-1.378229	 35.397820	-2.634230	 1.061549	 2.285769	 0.999082	 4.385460	 3.627018	-0.229235	 99.298680	 88.440410	 167.614700	-50.585160	 75.472920	 62.779710	 2.813616	-9.165541	 27.865800	-17.474720	-35.522530	 13.325050	-7.042481	-3.717616	-36.488200	 5.070815	-0.697434	-9.399699	-2.350882	 35.473990	 5.254307
